<?xml version="1.0" standalone="no"?>
<!DOCTYPE svg PUBLIC "-//W3C//DTD SVG 20010904//EN"
 "http://www.w3.org/TR/2001/REC-SVG-20010904/DTD/svg10.dtd">
<svg version="1.0" xmlns="http://www.w3.org/2000/svg"
 width="16.000000pt" height="16.000000pt" viewBox="0 0 16.000000 16.000000"
 preserveAspectRatio="xMidYMid meet">
<metadata>
Created by potrace 1.11, written by Peter Selinger 2001-2013
</metadata>
<g transform="translate(0.000000,16.000000) scale(0.003200,-0.003200)"
fill="#000000" stroke="none">
<path d="M0 2500 l0 -2500 2500 0 2500 0 0 2500 0 2500 -2500 0 -2500 0 0
-2500z m1952 1460 c396 -83 733 -311 953 -645 65 -99 115 -197 115 -226 0 -12
-20 -54 -45 -94 -247 -396 -116 -912 280 -1105 119 -58 194 -73 350 -68 113 4
141 8 217 35 228 80 425 265 516 484 118 284 68 608 -127 829 l-47 54 -55 -77
c-56 -80 -89 -101 -115 -75 -13 13 -174 526 -174 555 0 7 10 19 23 28 32 21
568 35 592 15 26 -21 17 -49 -40 -128 l-54 -75 63 -68 c363 -384 383 -978 50
-1422 -356 -475 -1022 -597 -1475 -271 l-46 34 -30 -48 c-49 -79 -150 -197
-229 -270 -268 -247 -598 -384 -959 -399 -564 -23 -1109 293 -1368 795 -74
142 -68 152 84 152 l107 0 41 -70 c208 -349 532 -568 924 -623 l37 -6 0 86 c0
116 6 123 117 123 121 0 123 -2 123 -110 0 -49 4 -91 8 -94 12 -7 187 29 262
54 256 85 497 271 648 499 l61 93 -30 45 c-50 73 -109 207 -135 311 -63 248
-34 519 81 760 25 52 45 99 45 104 0 24 -119 174 -199 251 -135 130 -296 228
-471 287 -74 25 -250 61 -262 54 -4 -3 -8 -47 -8 -98 0 -58 -4 -96 -12 -104
-16 -16 -200 -16 -216 0 -8 8 -12 47 -12 109 l0 98 -37 -6 c-392 -55 -716
-274 -924 -623 l-41 -70 -107 0 c-152 0 -158 10 -84 152 116 225 292 417 515
562 164 107 385 190 585 220 133 21 374 14 505 -14z m-726 -518 c6 -4 122
-146 257 -316 187 -233 247 -315 247 -336 0 -21 -14 -38 -71 -83 -40 -32 -79
-57 -89 -57 -9 0 -30 15 -46 33 -44 46 -471 582 -484 607 -15 28 -4 43 71 107
61 50 91 62 115 45z m2474 -331 c5 -11 10 -40 10 -65 0 -42 2 -46 28 -52 57
-12 116 -35 134 -51 24 -22 23 -42 -7 -109 -24 -54 -26 -56 -57 -51 -18 3 -51
12 -73 21 -129 50 -251 -27 -167 -107 15 -14 54 -38 87 -52 147 -63 204 -106
241 -181 69 -141 5 -312 -142 -374 l-44 -19 0 -65 c0 -77 -10 -86 -89 -86 -66
0 -81 16 -81 86 0 50 -2 54 -27 60 -119 26 -183 58 -183 91 0 35 35 125 52
134 13 7 35 2 80 -18 47 -20 80 -27 131 -27 66 -1 70 0 99 33 24 27 29 39 24
64 -10 47 -32 65 -151 121 -179 85 -224 140 -225 271 0 59 5 78 29 120 35 61
51 76 119 110 l52 26 0 58 c0 31 5 62 12 69 7 7 39 12 75 12 51 0 64 -3 73
-19z m-1972 -521 c70 -43 78 -136 17 -197 -29 -29 -40 -33 -83 -33 -40 0 -57
6 -81 26 -120 101 13 285 147 204z m-52 -315 c73 -41 88 -57 82 -88 -3 -13
-78 -155 -169 -316 -123 -219 -170 -293 -186 -297 -27 -7 -159 61 -180 93 -17
25 -9 45 100 236 29 50 93 163 142 249 49 86 96 159 104 161 22 6 37 1 107
-38z"/>
</g>
</svg>
