<svg data-name="Camada 1" xmlns="http://www.w3.org/2000/svg" viewBox="0 0 595.28 595.28"><path d="M43.36 346.07h510.11v9.8H44.96v-9.8h-1.6zm434.83-106.25c-.5-.29-2.4.29-2.79 2.21 0 1.55.88 2.65 2.87 3.25 3.69 1.11 4.79 1 5.82 1.62 1.4.81 4.8 2.05 5.32 14.43.35 14.66-.15 33.81-.31 51.21-.07 16.47-2 16.57-5.23 18.76-4.05 1.62-6 2.74-5.88 4.64 0 1.4 1 2.81 5.23 2.81 12.89-.16 23.7-.36 34.18-.36 9.79 0 19.14.13 29.54.49 5.37.67 5.15-1.48 5.15-3.39a95.56 95.56 0 01.36-17.88c0-6-1.54-5.53-2.64-5.61-1.48-.21-3.1.73-3.1 3.84-.07 2.94.67 10.6-12.46 11.85a115.06 115.06 0 01-16.63 1c-5.6 0-6.63-.08-6.7-3.44 0-10.11.29-23.81.44-29.84.21-4.64 4.35-4.35 8.24-4.57 4.42-.15 13.42-.22 16 9.13 1.18 4.86 2.13 4.79 3.69 4.57s2.44-1.25 2.21-4.87c-.22-3.45-.95-18.69.24-26 .29-3.54-.17-4.42-1.72-4.87-1.61-.28-3.29.67-4.28 4-.95 1.85-3.36 7.81-13.53 8.32s-11-.13-10.83-6.25c-.08-6.27.08-20.12.08-20.19-.16-1.1-.16-5.51 4.71-5.16 6.18-.06 17.09.29 19.8.91s10.26 1.39 11.12 12.66c.45 3.09 2.08 3 3 3.09 1.18.07 2.59-.6 2.22-3.63s-.22-14.21.29-18.18c.21-4.21-1.84-4.15-4.49-4.28-1.69 0-21.66.76-36.33 1.11-8.51.37-33.49-1.4-33.49-1.4m-129.1.45c-2.14-.2-3 .83-3.11 2.22.14 1.47.37 1.92 2.13 3 5.38 2.51 10.47 2.93 11.49 17.24v51.89c-.73 7.52.6 12.3-9.42 17.69-3.23 1.82-3.9 2.69-3.76 4.4a2.28 2.28 0 002.37 2.07c2.79.37 9.64-.66 18.56-.3 5.82-.22 14.35.52 17.68.21 2-.58 2.43-1 2.43-2.73.14-1.19-.51-2.49-2.58-3.46-3.09-1.48-12.38-3.68-13.19-17.82l-.06-41.33L401 335.8c.29.89 1.33 3.1 3.31 3 1.63-.08 4.2-2.51 5.46-5.23l27.56-59.81v49.35c0 .06.51 8.24-4.65 9.22-2.36.72-3.46 2.41-3.32 3.65a2.9 2.9 0 002.88 2.59c1.46.06 10.32-.24 19.37-.24 9.58 0 19.38.38 20.85.1 2.28 0 3-1.57 2.88-2.67.22-2.13-1.76-2.86-2.94-3.39-6.13-2.57-13.19-4.26-13.41-22.39l.07-53.1c.37-5.3 1.48-9.22 10.31-11 3.47-1.4 4.27-2.65 4.14-3.61-.17-1.46-.52-2.43-2.2-2.13-1.41-.15-7.17.37-13.27.53-5.6-.1-10.76-.23-14.38-.53-5.28 0-7.21 4.88-8.09 6.78L410 303.26l-29.7-60.12c-1.12-3-2.73-2.78-5.45-3-2.58 0-14.81 1.25-25.71.13m-304.53-.45c-.53-.29-2.43.3-2.81 2.21 0 1.55 1 2.65 2.88 3.25 3.68 1.11 4.79 1 5.81 1.62 1.41.81 4.79 2.05 5.31 14.43.37 14.66-.14 33.81-.3 51.21-.06 16.47-2.06 16.57-5.16 18.76-4.11 1.62-6 2.74-6 4.64 0 1.4 1 2.81 5.24 2.81 13-.16 23.71-.36 34.17-.36 9.79 0 19.14.13 29.54.49 5.38.67 5.15-1.48 5.15-3.39a94.57 94.57 0 01.37-17.88c0-6-1.55-5.53-2.66-5.61-1.46-.21-3.09.73-3.09 3.84-.08 2.94.66 10.6-12.37 11.85-8 .88-12.67 1.18-16.73 1-5.59 0-6.61-.08-6.7-3.44 0-10.11.3-23.81.52-29.84.15-4.64 4.27-4.35 8.17-4.57 4.42-.15 13.41-.22 16 9.13 1.17 4.86 2.13 4.79 3.68 4.57s2.42-1.25 2.19-4.87c-.2-3.45-.95-18.69.23-26 .31-3.54-.15-4.42-1.69-4.87-1.62-.28-3.3.67-4.2 4-1 1.85-3.46 7.81-13.62 8.32s-11-.13-10.76-6.25c-.07-6.27 0-20.12 0-20.19-.14-1.1-.07-5.51 4.72-5.16 6.17-.06 17.08.29 19.81.91s10.24 1.39 11.12 12.66c.44 3.09 2.06 3 3 3.09 1.18.07 2.58-.6 2.2-3.63s-.21-14.21.38-18.18c.15-4.21-1.92-4.15-4.57-4.28-1.7 0-21.65.76-36.31 1.11-8.54.37-33.51-1.4-33.51-1.4m295.05 93.57c-2.2-1-6.11.38-11.34-10.37l-37.79-82.07c-.89-1.92-2.88-2.14-3.68 0l-4.36 8.6-37.79 75.94s-2.49 6-7.36 7.68c0 .06-3.68 1.31-3.61 3.46 0 1.63 1.56 2.36 3.47 2.2a258 258 0 0128.35.16c2.06.07 3.17-1 3.4-2.29a3.92 3.92 0 00-2.73-4.13c-4-1.76-7.87-1-7.07-5.74s3.7-12.81 5.68-16c1.55-2.65 2.58-2.35 4.34-2.35h26.24c2.13.21 2.8.43 4 2.48a50.25 50.25 0 015.74 12.46c1.55 5.76-1.4 8.87-4.55 10-2.14.79-4.58.6-4.58 3.54.07 1.25 1.26 1.77 2.8 1.83 3.91-.22 12.3-.28 21-.42 7.3.13 12.38.06 19.22.49 2.73-.08 3.23-1.31 3.32-2.28.19-1.86-.84-2.73-2.62-3.25m-48.24-35.49c-3.54.06-6.26.06-8.91.06s-5.6-.06-9.34-.06c-1.41-.22-3.18.29-2.15-2.94l11.42-23 .06.35L293.38 294c.82 2.2 1.7 3.76-1.91 3.83m-158.98-57.64s-4.34-.36-4.57 1.77c0 1.34.15 2.44 2.51 3.24 6.85 3.33 10.38 7 11.93 9.51 5.15 5.68 26.22 36.9 26.22 36.83s-27.18 29.9-27.18 29.84-8 7.81-15.61 11.49c-2.43 1.31-2.72 2.58-2.43 3.76.22 1.54 1.62 2.36 4.41 2.28 5.82.09 19-1.38 37.28 0 2.58 0 3.76-1.09 3.82-2.5.16-1.56-1-3.24-3.3-3.76-5.23-.88-13.57-4-6.33-13.47S175 300.44 175 300.38s9.95 14.73 15.1 22.39c3.16 4.79 1.39 9.29-3.91 10.39a3.18 3.18 0 00-2.35 3.38c0 1.47 1.33 2.44 4.27 2.22 4.63.22 20.33-.88 39.86 0 3.16 0 4.2-.88 4.41-2a3.77 3.77 0 00-2.35-3.83c-2.87-1.7-6.26-1.33-14.29-12.3-9.2-12.6-26.16-36.32-26.16-36.39s28.22-30.72 28.22-30.72a23.27 23.27 0 0112.8-7.52c2.44-1 2.94-2.8 2.64-3.83.15-1.18-1.31-2.07-3-2-5.61.6-11.94 1.11-17.69 1.26-5.88-.15-14.87-.74-20.25-1.26-2.13-.07-3.24 1-3.32 2.29a2.84 2.84 0 002.65 3.46c5.37.89 12.37 2.52 6.85 10.47a229.06 229.06 0 01-15.63 18.2c0 .06-14.72-21.5-14.72-21.61-.73-1.31-2.95-5.58 3-7 3.09-.82 4-1.7 3.68-3.46.22-1.9-1.56-2.3-3.83-2.37-4.53-.22-13.95 1.35-21.17 1.11-5.22-.36-17.31-1.11-17.31-1.11" fill="#798ea5"/></svg>