<svg id="Camada_1" data-name="Camada 1" xmlns="http://www.w3.org/2000/svg" viewBox="0 0 595.28 595.28"><defs><style>.cls-1{fill:#798ea5;fill-rule:evenodd}</style></defs><path class="cls-1" d="M282.88 277.29c0 12-1.2 49.08-1.2 49.08 0 7.18 2.39 10.37 9.18 10.37v3.19h-26.73v-3.19c6.78 0 10.37-3.19 10.37-10.37l2.39-60.65c-2-4.79-4-6.38-9.18-6.78v-2.79h20.35l21.54 56.66 21.94-56.66h18.35v2.79c-5.19 0-8 2.39-8 8l2.39 58.65c0 8.78 1.6 11.17 8.78 11.17v3.19h-30.68v-3.19c6 0 8.78-2 8.38-11.17 0 0-1.2-41.09-1.6-48.28L314.4 318a152.21 152.21 0 00-5.59 17.55l-4.79.4c-1.2-4.39-4.39-12.37-4.39-12.37s-12.37-34.71-16.76-46.28zm-25.14 63.04a19.4 19.4 0 00-4.79-.4c-3.19 0-8.78 1.6-15.56 1.6-25.93 0-45.08-15.56-45.08-44.29 0-24.34 18-43.09 45.48-43.09a54.73 54.73 0 0119.55 3.59c1.2-1.2 1.6-2 2.79-3.19h2.39c-.4 4.39-2 18.75-2 18.75h-2.39c-1.6-8.38-6-14-19.95-14-16.76 0-31.92 13.17-31.92 37.5 0 27.53 15.56 39.5 32.72 39.5 11.17 0 18-6.38 22.34-14.36l2.79 1.2-6.38 17.16zm-75.41-68.63h-2.79c-.4-7.58-2.79-10-8.78-10h-11.57v62.64c0 10.37 2 12.37 8.78 12.37v3.19H138v-3.19c6.78 0 8.78-2 8.78-12.77v-62.21h-11.53c-7.58 0-8.78 2-10.77 10h-2.79l2-18 2 .4c.8 2 2.39 2 7.18 2h38.7c7.18 0 8.78 0 10.37-2.39h2.39l-2 18z"/><path class="cls-1" d="M97.75 341.92a38 38 0 01-13.17-2 22.9 22.9 0 01-6.78-2.79 21.4 21.4 0 00-2.8 3.6l-2.39-.8 2-18.75 2.79.4c1.6 8.78 7.58 15.16 19.95 15.16 9.58 0 16-8 16-16.76 0-7.18-2.79-10.77-12.37-18a76.24 76.24 0 01-8.38-5.59c-8.78-5.59-14.36-12-14.36-22.34 0-12 10-19.95 23.14-19.95a30 30 0 0114 3.19l2.79-3.19 2 .4-2 17.16-2.79-.4c0-8-4.79-11.57-12.77-11.57-7.58 0-13.17 4-13.17 11.57 0 6.78 5.19 11.17 11.17 15.16 3.19 2 5.59 3.59 8 5.19 14 10 17.16 16.36 17.16 25.93 0 14-10.77 24.34-27.93 24.34zM52.27 271.7h-3.19c0-7.18-3.19-10-9.58-10h-18v31.52h11.62c6 0 7.18-3.19 8-8.38h2.79v22.34H41.1c-.8-6-2-8.38-8.38-8.38H21.55v26.73c0 10 2.39 11.17 8.78 11.17v3.19H0v-3.19c7.58 0 8.78-2 8.78-11.17v-58.61c0-5.59-2.39-8-8.78-8v-2.79h41.49c7.18 0 8.78-.4 10-2.79h2.79l-2 18.35zm430.5 4.79v47.88c0 10.37 2.39 12.37 8.78 12.37v3.19h-47.09v-3.19c3.59 0 6.78-1.2 6.78-3.59a29.51 29.51 0 00-1.2-7.18l-3.59-11.57h-26.32c-.4 1.6-5.19 14.76-5.19 18.35 0 3.19 3.59 4 6 4v3.19H399v-3.19c4 0 7.18-.4 10-8.78l20.35-65c-1.2-2.79-2.79-3.59-5.59-4v-2.79h18l21.55 68.23c2 7.18 4 10.77 7.18 12.37 4.79-1.6 6-3.19 6-12.37v-57.49c-3.59-4.79-4-8-10.77-8v-2.79H486l33.52 57.05v-43.47c0-8.78-2-10.77-8.78-10.77v-2.79h44.69v2.79c-2.79 0-5.19 1.2-5.19 4 0 2 .8 4 1.6 6.38l12.77 27.53 12.37-26.73c2-3.59 2.39-5.59 2.39-7.58 0-2.39-1.6-3.59-5.19-3.59v-2.79h21.15v2.79c-5.19 0-8.38 4.79-10.77 10.37l-16.36 33.51v21.94c0 9.58 2.39 12 8.78 12v3.19H546.6v-3.19c6.38 0 8.78-2.39 8.78-12V306l-17.55-37.11c-3.19-7.18-4.39-8.78-6.38-10-4 1.6-5.19 4.39-5.19 10.77v61.44s.4 4.79.8 10.37l-5.19.4-39.1-65.43zm-49.87-4l-11.17 36.31h23.14l-12-36.31z"/><path class="cls-1" d="M383.42 308.81h-6V326c0 8.78 2.39 10.77 9.18 10.77v3.19h-30.71v-3.19c6.38 0 8.78-2.39 8.78-11.17v-56.29c0-8.78-2.39-10.37-8.78-10.37v-2.79H379c22.34 0 35.51 6.78 35.51 25.14 0 19.15-16 27.53-31.12 27.53zm-4-47.08h-2v41.09H381c13.17 0 19.95-6 19.95-21.15s-6-19.95-21.54-19.95zM244.18 324c-15.16 0-25.53-10.77-25.53-26.33 0-14.76 10.77-26.33 25.53-26.33 14.36 0 25.14 11.17 25.14 26.33 0 14.76-11.17 26.33-25.14 26.33zm0-47.88c-10.37 0-14 10-14 21.55 0 10.77 3.19 21.55 14 21.55 10.37 0 13.57-10.77 13.57-21.94 0-10.77-4-21.15-13.57-21.15zM68.63 319.18v-2.79c4 0 4.79-1.2 4.79-2.39a11.79 11.79 0 00-.8-4s-.8-3.19-1.6-5.59H55.46l-1.6 5.19a11.82 11.82 0 00-.8 4c0 1.6 1.6 2.79 4 2.79v2.79H41.49v-2.79c4 0 5.59-1.2 7.18-5.59l12-35.91c-.4-1.6-1.6-2.79-4-2.79v-2.79h12.75c10.37 30.32 13.17 38.3 13.17 38.3 2 6.78 4 8.78 7.18 8.78v2.79zM63 280.48l-6 19.55h12.42L63 280.48z"/></svg>