<svg id="Camada_1" data-name="Camada 1" xmlns="http://www.w3.org/2000/svg" viewBox="0 0 595.28 595.28"><defs><style>.cls-1{fill:#798ea5}</style></defs><path class="cls-1" d="M43.13 300.7c0 20 7 29.2 21.76 29.2 12.9 0 22.89-8.29 22.89-28.54 0-20.06-7.06-29.1-21.85-29.1-12.9 0-22.79 8.1-22.79 28.44zm31.08.75c0 22-4.52 25.15-9.14 25.15s-8.47-3.6-8.47-26.09c0-21.94 4.52-25 9-25s8.57 3.39 8.57 25.9zm16.2 27.41h33.34V312h-2.64l-4.61 13.09H108V277l4.9-1.13v-2.54H90.79v2.54l4.52 1.13v48.22l-4.9 1.13v2.54zm37.77-55.57v2.54l4.52 1.22v48.13l-4.52 1.13v2.54h21.29v-2.54l-4-1.13v-21.85h12.24v21.85l-3.77 1.13v2.54h21v-2.54l-4.52-1.13V277l4.14-1.13v-2.54h-20.67v2.54l3.77 1.13v22.6h-12.24V277l4-1.13v-2.54h-21.24zm50.29 55.57h14.23v-2.54l-5.7-1.14 3.11-13.28h11.87l4.43 13.28-5 1.13v2.54h22.42v-2.54l-4.14-1.13-15.73-52H196l-13.47 52-4 1.13v2.54zM191.1 308l4.33-17.52L200.8 308zm88.06-6.12c0-21.85-8.29-28.63-22-28.63h-21.52v2.54l4.43 1.13v48.22l-4.43 1.13v2.54h22.42c11 0 21.1-7.25 21.1-26.94zm-22.23 23.17h-3.58v-48h3.2c6.31 0 9.8 3.67 9.8 24.3 0 20.25-3 23.73-9.42 23.73zM.19 265.56v2.92l5.75 1.22v55L0 325.94v2.92h27.5v-2.92l-7.5-1.23v-25.43h8.1l2 8.38h3v-20.43H30l-2 7.72h-8V269.8h10.33l5.27 14.41h3.2v-18.65H.19z"/><path class="cls-1" d="M306.42 325.09h-10.26V303H303l1.7 7.44h2.64v-18h-2.64l-1.7 6.78h-6.88v-21.97h8.57l4.52 12.24h2.92v-16h-33.78v2.45l5.09 1.13v48.13l-5.18 1.13v2.54h35.6v-16.2H311l-4.62 12.43zm47.09-60.37c-11.3 0-20.25 7.25-20.34 18.65-.1 18.74 23.83 18.93 23.83 33.91a7.7 7.7 0 01-8 7.72c-3.3 0-6.88-.47-9.51-2.07l-2.83-12.24h-3.3v17.14c3.3 1.32 8.19 2.07 13.75 2.07 12.9 0 21.57-9.42 21.57-20.81 0-20.34-23.45-19-23.45-32.87 0-3.77 2.92-6.69 8.29-6.69a28.87 28.87 0 016.31.75l3.11 12.62h3v-17.14a65.78 65.78 0 00-12.43-1zm53.4 34.09h-2.35V270h2.54c4.8 0 6.59 2.64 6.59 14.32s-2.45 14.5-6.78 14.5zm3.48 4.33c12.62 0 18.08-7.44 18.08-18.74 0-14.6-7-18.74-17.33-18.74h-26.36v2.92l5.75 1.22v54.91l-5.93 1.22v2.92h27.13v-2.92l-7.16-1.22v-21.56h5.84zm27.22 5l4.39-17.61 5.37 17.61h-9.7zm-13.19 20.72h14.79v-2.54l-5.65-1.13 3.11-13.28h11.77l4.33 13.28-5 1.13v2.54h23v-2.54l-4.71-1.13-15.63-51.9h-7.91L429 325.19l-4.52 1.13v2.54zm44-55.38v2.45l4.52 1.13v35.79c0 12.81 4.14 17.71 16.48 17.71 11.11.09 16.39-4.52 16.39-15.26v-38.24l4.24-1.13v-2.45h-12.81v2.45l4.71 1.13v37.49c0 7.82-2.17 12.06-9.42 12.06-5.18 0-6.88-3.3-6.88-10.36v-39.19l4.9-1.13v-2.45h-22.13zm45.77 55.38H547V312h-2.64l-4.52 13.09h-8.1v-48l4.9-1.13v-2.45h-22.17v2.45l4.61 1.13v48.13l-4.9 1.13v2.54zm36.64-28.16c0 20 7 29.2 21.76 29.2 12.81 0 22.7-8.29 22.7-28.54 0-20-7.06-29-21.85-29-12.81 0-22.6 8.1-22.6 28.35zm31 .85c0 21.94-4.61 25.05-9.14 25.05s-8.38-3.58-8.38-26c0-21.94 4.52-25 9-25s8.48 3.39 8.48 25.9zm-208.61 17c3 0 5.46 2.73 5.46 6a5.94 5.94 0 01-5.65 6c-2.83 0-5.46-2.73-5.46-6a6.07 6.07 0 015.65-6z"/></svg>