<svg id="Camada_1" data-name="Camada 1" xmlns="http://www.w3.org/2000/svg" viewBox="0 0 595.28 595.28"><defs><style>.cls-1{fill:#798ea5;fill-rule:evenodd}</style></defs><path class="cls-1" d="M356.31 268.61a44 44 0 00-22.23 5.56c0-19.76 0-37.67.62-43.85l-41.38 7.41v3.71l4.32.62c5.56 1.23 7.41 4.32 8.65 11.73 1.23 14.82.62 93.88 0 106.85 11.12 2.47 22.85 4.32 34.59 4.32 32.73 0 52.5-20.38 52.5-52.5 0-25.32-16.06-43.85-37.06-43.85zm-14.21 89.55c-2.47 0-5.56 0-7.41-.62-.62-8.65-1.24-45.09-.62-77.2a27.33 27.33 0 019.26-1.85c13.59 0 21 16.06 21 35.82 0 24.7-9.26 43.85-22.23 43.85zM137.68 232.79H29v5.56l6.18.62c8 1.23 11.12 6.17 12.35 17.91 1.85 22.23 1.24 62.38 0 81.53-1.23 11.73-4.32 17.29-12.35 17.91L29 357.55v4.94h69.77v-4.94l-7.41-1.24c-8-.62-11.12-6.18-12.35-17.91-.62-8-1.24-21-1.24-37.06l14.82.62c9.27 0 13.59 7.41 15.44 17.91h5.56V276H108c-1.85 10.5-6.18 17.91-15.44 17.91l-14.82.62c0-21 .62-40.76 1.24-52.5h21.61c16.68 0 25.32 10.5 31.5 29l6.18-1.85-.62-36.44z"/><path class="cls-1" d="M172.88 267.38c30.88 0 46.32 21 46.32 48.79 0 26.55-17.29 48.83-48.2 48.83s-46.32-21-46.32-48.79c0-26.56 17.29-48.79 48.17-48.79zm-1.88 6.17c-13.59 0-17.29 18.53-17.29 42.62 0 23.47 6.18 42.61 18.53 42.61 14.2 0 17.91-18.53 17.91-42.61 0-23.47-6.18-42.62-19.15-42.62zm230.4 43.23c0-25.32 16.06-49.41 47.56-49.41 25.94 0 38.29 19.15 38.29 44.47h-57.44c-.62 22.85 10.5 39.53 32.74 39.53 9.88 0 14.82-2.47 21-6.79l2.47 3.09C479.83 356.31 466.25 365 449 365c-27.79 0-47.56-19.76-47.56-48.17zM429.81 305l29-.62c0-12.35-1.85-30.88-12.35-30.88s-16.06 17.29-16.68 31.5zm130.93-32.68c-7.41-3.09-17.29-4.94-28.41-4.94-22.85 0-37.06 13.59-37.06 29.64s10.5 22.85 25.32 27.79c15.44 5.56 19.76 9.88 19.76 17.29s-5.56 14.21-15.44 14.21c-11.73 0-20.38-6.79-27.17-25.32l-4.32 1.23.58 27.18c7.41 3.09 21 5.56 32.73 5.56 24.09 0 39.53-12.35 39.53-31.5 0-13-6.8-20.38-22.85-26.56-17.26-6.79-23.41-11.11-23.41-19.14s5.56-13.59 13-13.59c11.12 0 18.53 6.79 24.09 23.47l4.32-1.23-.62-24.09zm-261.25-2.47c-10.5-6.18-29-3.09-38.91 19.15l.62-21.62-41.38 8v3.7l4.32.62c5.56.62 8 3.71 8.65 11.73 1.24 14.82.62 40.76 0 53.73-.62 7.41-3.09 11.12-8.65 11.73l-4.32.62v4.94h57.44v-4.94l-7.41-.62c-6.18-.62-8-4.32-8.65-11.73-1.24-11.73-1.24-35.2-.62-50 3.09-4.32 16.67-8 29 0l9.88-25.32z"/></svg>