<svg data-name="Camada 1" xmlns="http://www.w3.org/2000/svg" viewBox="0 0 595.28 595.28"><path d="M358.39 248.21h2.9c6 .27 10.66 1.35 14 4.1 3.15 2.6 4.89 6.95 5.9 12 1.95 9.77 1.7 22.16 1.7 34.1s.34 24.18-1.7 34.1c-1.05 5.11-2.79 9.25-6.4 11.5-6.66 4.14-23.47 3.93-29.6-.3-3.38-2.33-5.26-6.52-6.4-11.5-2.16-9.48-1.9-22-1.9-33.9 0-11.69-.28-24.38 1.7-34.1 2.11-10.36 7.41-15.97 19.8-16zm-2.1 26c-.21 2.64-.2 5.09-.2 7.7 0 13.19-.56 26.85.2 39.1.15 2.48.27 5.59 1.6 6.4 1 .6 3.59.25 4 0 1.24-.75 1.55-3.81 1.7-6.1.17-2.69.2-5.24.2-7.6v-31c0-3.73.36-12.36-1.8-13.8a6 6 0 00-3.1-.3c-2.11.39-2.38 2.87-2.6 5.6zm113.3-26h2.9c6.21.27 10.57 1.37 14 4.1 3.19 2.55 4.91 7.09 5.9 12 1.93 9.6 1.7 22.17 1.7 34.1s.29 24-1.7 34c-1 5.08-2.63 9.2-6.3 11.6-6.69 4.37-23.54 3.86-29.6-.3-3.42-2.35-5.42-6.53-6.5-11.4-2.12-9.53-1.9-21.86-1.9-33.9 0-11.79-.31-24.19 1.7-34 1-5 2.77-9.39 5.9-12 3.31-2.77 7.74-3.97 13.9-4.2zm-2 26c-.55 7.47-.4 15.93-.4 23.4 0 8.93-.25 15.23.3 23.4.16 2.43.34 5.64 1.6 6.4a6.31 6.31 0 004 0c1.29-.76 1.53-3.77 1.7-6.1.59-7.94.3-14.82.3-23.2 0-7.59.23-15.64-.3-23.1-.18-2.5-.38-5.45-1.7-6.2a6.61 6.61 0 00-2.9-.2c-2.31.39-2.39 2.72-2.6 5.6zm100.7-26h2.9c8.78.28 14.48 2.69 17.5 8.7 2.93 5.83 3.35 13.83 3.9 22.3v38.3c-.08 0-.12.08-.1.2-.29 8.49-.87 15.57-3.4 20.9-2.8 5.91-7.78 7.9-16.1 8.3-7.94.38-15.87-.67-19.7-4.7s-5.24-10.84-5.9-18.5c-.63-7.33-.7-15.54-.7-23.7s-.11-16.46.4-24 1.27-14.86 4.3-20.1 9.13-7.51 16.9-7.7zm-2.1 25.9c-.21 2.5-.3 5.19-.3 7.6 0 13.38-.54 26.69.2 39.2.14 2.33.4 5.57 1.5 6.4a6 6 0 004.2.1c1.25-.76 1.43-3.77 1.6-6.1.55-7.73.3-15 .3-23.1 0-5.12.13-10.19 0-15.5-.08-3.5.29-12.39-1.8-13.8a6 6 0 00-3.1-.3c-2.2.39-2.38 2.82-2.6 5.5zm-563.5 46.3v-46.1h.1c.65-11.08 2.51-20.38 10.8-23.8s21.63-2.16 30.6-.1c-1.41 6.32-2.39 13.08-3.9 19.3a61.78 61.78 0 00-6.8-1.1 25.74 25.74 0 00-7.7-.1c-4.47.83-4.5 7.14-4.7 12.5-.19 5.08-.1 11.31-.1 16 0 8.29-.25 16.23.3 23.8.26 3.62.4 7.86 3.2 8.5 6.9 1.59 5.6-6.73 5.6-12.7a108.67 108.67 0 00-.2-11.1c-2-.07-4.27.13-6.1-.1v-18.7c0-.06 0-.12.1-.1 7.63.07 15.53-.13 23 .1-.31 10.67.41 21.64 0 32.5s-1.19 20.44-8 24.6c-3.29 2-8.17 2.84-13.5 2.8-5.07 0-10.73-.36-14-2.3-6.93-4.11-7.77-13.96-8.7-23.9zm59.6-72h21.9c4.8 32.6 9.74 65.06 14.5 97.7h-19.5c-.55-3.75-1-7.64-1.4-11.5h-10c-.6 3.66-.76 7.78-1.3 11.5h-18.7c4.68-32.55 9.58-64.88 14.3-97.4a.27.27 0 01.2-.3zm7.7 67.4h5.6c-.94-9.53-1.85-19.94-2.8-29.8C71.87 296 71 306 70 315.81zm164.6-67.4h21.9c4.85 32.49 9.85 65.35 14.5 97.7h-19.5c-.49-3.81-.9-7.7-1.4-11.5h-9.9c-.57 3.7-.86 7.67-1.3 11.5h-18.8c4.91-32.47 9.49-65.31 14.5-97.7zm7.7 67.4h5.8c-1.18-9.78-1.88-20.06-3-29.9-.83 10.09-1.72 20.09-2.8 29.9zM101 249.11h38.2v8.7a76.37 76.37 0 010 8.7 24.4 24.4 0 01-1.2 3.8c-5.87 19.09-11.65 37.87-17.6 56.9H140v18.9H99.79c.47-5-.62-10.3 0-15.4a24.78 24.78 0 011.2-3.9c6.14-19.3 12-38.48 18.1-57.8h-18.2v-19.6c-.01-.14-.02-.28.11-.3zm43.49 0h34.6V269h-15.9v18.3c5 .23 10.43 0 15.6.1v19.5h-15.5c-.23 6.57 0 13.57-.1 20.3h15.9v18.9h-34.7v-96.7c-.01-.13-.02-.27.1-.29zm37.3 0h41.4v19.6h-11.3c-.23 25.6 0 51.63-.1 77.4h-19v-77.4h-11.1v-19.3c-.01-.14-.02-.28.1-.3zm105.6 0h23.5c8 0 13.23 1.76 16.7 6.7 3.22 4.58 4.16 11.42 4.6 18.9s.4 15.44.4 23 0 15.62-.4 23.1-1.29 14.46-4.5 18.9c-3.57 4.93-9.22 6.18-17 6.4s-15.4-.16-23.4 0v-96.7c-.01-.14-.02-.28.1-.3zM306 268v60.4c1.49-.07 3.67.21 4.8-.4 2.88-1.54 2.59-8.81 2.7-13.6.25-10.64.37-21.85 0-32.4-.16-4.73.3-12.06-2.5-13.8-1.07-.67-3.5-.49-4.9-.5-.1.02-.1.17-.1.3zm95-18.89h17.3c5.83 0 11.32-.21 15.7 1.5 8.55 3.33 10.45 12.21 10.9 23.6.45 11.19.64 23.3-2.3 31.8-3.1 8.93-9.64 12.69-22.8 11.6-.23 9.27 0 19-.1 28.4-6.07.23-12.57 0-18.8.1v-96.7c-.02-.14-.03-.28.1-.3zm18.7 19.6v30.1c1.29-.13 3.7.29 4.8-.3 1.62-.87 1.68-3.89 1.8-6.6.25-5.58.26-11.37 0-16.7-.13-2.77-.29-5.84-1.9-6.6-1.12-.53-3.32 0-4.6-.2-.13.01-.12.16-.11.3zm75.69-19.6h19.3c2.11 21.59 4.44 43 6 65.1 1.48-22.16 3.77-43.5 5.8-65.1h19.1q-6.48 48.72-12.8 97.6h-24.7c-4.16-32.54-8.68-65.26-12.7-97.6z" fill="#798ea5" fill-rule="evenodd"/></svg>