<svg data-name="Camada 1" xmlns="http://www.w3.org/2000/svg" viewBox="0 0 595.28 595.28"><path d="M249.99 200.46h125.17l-4.06 19.48H245.93l4.06-19.48zm-29.9 143.26h125.17l-4.05 19.48H216l4.09-19.48zm23.29-111.56h125.17l-4.04 19.43H239.33l4.05-19.43zm-29.9 143.18h125.17l-4.03 19.48H209.38l4.1-19.48zM94 309.32h18.71a10.81 10.81 0 00-.23 3.52 6.58 6.58 0 002.07 4.08c1.19 1.15 3.37 1.86 6.45 1.86a14.21 14.21 0 007.85-2 7.47 7.47 0 003.53-4.38 4.06 4.06 0 000-1.81 6.78 6.78 0 00-2.55-3.92c-1.46-1.21-3.75-2-6.57-2.51-9.73-1.92-16.07-4.61-19.18-7.39s-4.23-7.09-3.34-12.93c1.1-7.2 5.13-12.34 11.55-15.79a43.74 43.74 0 0121.09-5.13q16.19.5 20.2 6.39t2.2 14.54l-18.89-.1a5.74 5.74 0 00-1-5.13q-1.69-2-6-2a10.68 10.68 0 00-6.25 1.76 7 7 0 00-3.07 3.87l-.13.6a4.74 4.74 0 001.49 3.92 8.49 8.49 0 005.37 2.21q2 .4 4.26.81t4.52 1a36 36 0 0112.85 5.94q5.58 4.12 3.65 13.38Q150 322 140.45 327.18a44.58 44.58 0 01-21.55 5.18q-14.69 0-20.71-5.83T94 309.42v-.1zm130.73-45.07l-2.86 13.68H190l-2.75 13.18h29.68l-2.86 13.68H184.4l-2.73 13.08h31.89l-2.71 13h-50.8l13.9-66.6zm41.55 0a43.17 43.17 0 015.12.19 40.74 40.74 0 017.12 1.42 17.42 17.42 0 017.87 4.73c3 3.05 3.11 7.75 2.29 11.67a16.75 16.75 0 01-5.93 9.61 19.17 19.17 0 01-11.48 4.38 25.41 25.41 0 019.81 5.28q4.21 3.67 2.6 11.42-2 9.76-9.84 13.88T252.38 331l-29.66-.1 13.9-66.6zm-11.89 53.62a10.56 10.56 0 006.4-1.51 9.26 9.26 0 003.2-3.52 6.27 6.27 0 00-1.34-7.09q-1.49-1.56-4.71-1.56H247.2l-2.86 13.68zm5-27.46c2.87 0 5-.46 6.46-1.57a8.09 8.09 0 002.85-5 5.09 5.09 0 00-1.1-4.63q-1.66-1.91-5.49-1.91h-9.36l-2.73 13.08zm74.77-26.16c6.55.26 12 .8 18.15 3.67q7.24 3.37 5.08 13.73-1.72 8.25-7.22 11.92a30.78 30.78 0 01-12.36 4.78q9.68.4 10.8 6.59a46.48 46.48 0 01.3 13.53c-.24 2.31-.48 4.76-.6 7a26.66 26.66 0 00.21 5.48l-20.3-.1a12.44 12.44 0 01-.13-4c.24-2.37.7-4.81 1-7.19a38.63 38.63 0 00.15-9.66q-.53-4.43-5.87-4.43h-8.65l-5.27 25.25h-18.82l13.9-66.6zm-16.66 28.27h7.14c3 0 5.46 0 8.35-1.46a7.39 7.39 0 004-5.58c.55-2.65 0-4.58-1.66-5.77a11.72 11.72 0 00-6.92-1.78h-7.85l-3 14.59zm99.16-28.27l12.16 66.6h-21L406 318.68h-26l-7.07 12.17h-19.42l40.66-66.6zm-15.33 13.68l-14.26 26.86h16.6l-2.34-26.86zm100.34-13.68l-2.86 13.68H467l-2.75 13.18h29.68L491 304.79h-29.64l-2.73 13.08h31.89l-2.71 13H437l13.9-66.6z" fill="#798ea5" fill-rule="evenodd"/></svg>